<?xml version="1.0" encoding="utf-8"?>
<!-- Generator: Adobe Illustrator 27.5.0, SVG Export Plug-In . SVG Version: 6.00 Build 0)  -->
<svg version="1.1" id="Layer_1" xmlns="http://www.w3.org/2000/svg" xmlns:xlink="http://www.w3.org/1999/xlink" x="0px" y="0px"
	 viewBox="0 0 1920 1080" style="enable-background:new 0 0 1920 1080;" xml:space="preserve">
<g>
	
		<path style="fill-rule:evenodd;clip-rule:evenodd;fill:#FFFFFF;stroke:#000000;stroke-width:2.4999;stroke-miterlimit:22.9256;" d="
		M630.964,1095.48c0,0-3.207,9.038,70.553,11.661c73.76,2.624,232.65,4.665,313.698,5.831
		c81.048,1.166,135.858-5.248,177.257-12.245c41.399-6.997,95.042-6.414,95.042-6.414s-0.176-130.948,0.291-158.951
		c0.467-28.003-16.335-47.138-7.934-82.142c8.401-35.004-0.933-61.14-6.534-77.475c-5.601-16.335-1.221-62.549,5.08-84.531
		c6.301-21.982-5.547-44.283-2.28-62.018c3.267-17.735,5.601-56.006,5.134-76.542c-0.467-20.536-1.4-172.686-1.4-172.686
		s-29.87-72.808-23.336-166.152c6.534-93.343,55.073-158.684,55.073-158.684L1089.45-32.611
		c-89.201,37.254-175.361,37.247-258.562,0L607.33,57.466c0,0,47.138,48.072,54.606,166.619
		c7.467,118.546-20.536,157.751-20.536,157.751v35.626l1.556,127.57l0.389,87.51c0,0,2.722,19.446,4.667,33.837
		c1.945,14.391,7.779,35.393,2.333,62.618c-5.445,27.225-15.557,41.616-11.279,77.786c4.278,36.17,3.889,72.73-1.556,100.733
		C632.066,935.518,625.065,1021.861,630.964,1095.48L630.964,1095.48z"/>
	<path style="fill:none;stroke:#000000;stroke-width:1.5001;stroke-miterlimit:22.9256;stroke-dasharray:3.0002,1.5001;" d="
		M791.406-16.702c8.589,90.91,80.952,161.911,168.918,161.911c88.027,0,160.424-71.098,168.932-162.097l-39.807-15.722"/>
	
		<path style="fill-rule:evenodd;clip-rule:evenodd;fill:#FFFFFF;stroke:#000000;stroke-width:2.4999;stroke-miterlimit:22.9256;" d="
		M959.469-4.688c-36.704,0.012-99.185-12.988-128.581-27.923l-30.223,12.178c29.048,43.662,123.789,53.283,158.804,53.488
		c35.015-0.204,131.475-9.941,160.523-53.602l-30.542-12.063C1060.053-17.675,996.173-4.676,959.469-4.688L959.469-4.688z"/>
	<path style="fill:none;stroke:#000000;stroke-width:2.4999;stroke-miterlimit:22.9256;" d="M630.964,1095.48
		c0,0-0.289,0.818,1.316,2.034c10.395-10.667,30.029-25.481,58.903-25.481c45.116,0,137.682-7.001,137.682-7.001
		s42.394,2.723,97.622-6.612c55.228-9.334,77.786,10.501,102.678,14.001c24.892,3.5,63.785,2.334,134.959-2.722
		c59.634-4.237,86.777-6.552,120.32,24.604c1.98,0,3.07,0.01,3.07,0.01s-0.016-10.805-0.025-26.859
		c-9.387-7.862-24.013-17.399-41.909-22.427c-23.492-6.601-52.226-5.048-76.106-3.689c-23.881,1.359-67.176,2.33-116.878,0.388
		c-49.702-1.942-59.212-9.754-81.381-12.087c-22.169-2.333-50.172,2.334-131.07,9.334c-80.898,7.001-104.234-1.556-149.738,3.111
		c-29.483,3.024-50.145,16.823-61.043,26.166C629.725,1077.429,630.248,1086.548,630.964,1095.48L630.964,1095.48z"/>
	<path style="fill:none;stroke:#000000;stroke-width:1.5001;stroke-miterlimit:22.9256;stroke-dasharray:3.0002,1.5001;" d="
		M630.964,1085.81c0,0-0.289,0.818,1.316,2.034c10.395-10.667,30.029-25.481,58.903-25.481c45.116,0,137.682-7.001,137.682-7.001
		s42.394,2.722,97.622-6.612c55.228-9.334,77.786,10.501,102.678,14.001c24.892,3.5,63.785,2.333,134.959-2.723
		c59.634-4.236,86.777-6.552,120.32,24.604c1.98,0,3.07,0.01,3.07,0.01s-0.016-10.805-0.025-26.859
		c-9.387-7.862-24.013-17.399-41.909-22.427c-23.492-6.601-52.226-5.048-76.106-3.689c-23.881,1.359-67.176,2.33-116.878,0.388
		c-49.702-1.941-59.212-9.754-81.381-12.087c-22.169-2.334-50.172,2.333-131.07,9.334c-80.898,7.001-104.234-1.556-149.738,3.112
		c-29.483,3.024-50.145,16.823-61.043,26.165C629.725,1067.76,630.248,1076.879,630.964,1085.81L630.964,1085.81z"/>
	
		<path style="fill-rule:evenodd;clip-rule:evenodd;fill:#666666;stroke:#000000;stroke-width:2.0002;stroke-miterlimit:22.9256;" d="
		M1284.442,1094.302c-33.542-31.154-60.685-28.839-120.318-24.602c-71.174,5.056-110.068,6.223-134.959,2.723
		c-24.892-3.5-47.45-23.336-102.678-14.001c-55.228,9.334-97.622,6.612-97.622,6.612s-92.566,7.001-137.682,7.001
		c-28.874,0-48.508,14.814-58.904,25.482c3.729,2.825,17.682,7.792,69.238,9.626c73.76,2.624,232.649,4.664,313.698,5.831
		c81.048,1.166,135.858-5.248,177.257-12.245C1227.977,1094.727,1272.489,1094.301,1284.442,1094.302L1284.442,1094.302z"/>
	
		<path style="fill-rule:evenodd;clip-rule:evenodd;fill:#FFFFFF;stroke:#000000;stroke-width:2.4999;stroke-miterlimit:22.9256;" d="
		M1311.607,55.133c0,0,21.314,11.123,57.095,53.517c35.781,42.394,130.292,169.574,130.292,169.574s7.779,29.559-28.003,61.062
		c-35.781,31.504-59.117,56.006-80.12,74.286c-21.002,18.28-41.227,29.558-62.618,10.89c-12.867-11.229-34.737-33.291-50.126-49.093
		c-6.283-17.344-27.163-81.981-21.593-161.552C1263.069,120.473,1311.607,55.133,1311.607,55.133L1311.607,55.133z M607.33,57.466
		c0,0-18.047,11.123-38.271,33.681c-20.224,22.558-87.51,109.679-87.51,109.679l-61.84,83.62c0,0,7.779,34.615,36.948,57.173
		c29.17,22.558,49.005,31.115,58.34,50.561c9.334,19.446,24.892,29.947,43.171,36.948s24.503,1.945,24.503,1.945l58.729-49.239
		c0,0,28.003-39.204,20.536-157.751C654.468,105.538,607.33,57.466,607.33,57.466L607.33,57.466z"/>
	
		<path style="fill-rule:evenodd;clip-rule:evenodd;fill:#FFFFFF;stroke:#000000;stroke-width:2.4999;stroke-miterlimit:22.9256;" d="
		M419.709,284.447c0,0,15.946,5.445,37.727,22.169c21.78,16.724,35.781,17.502,68.452,52.117
		c27.856,29.515,48.076,64.115,53.43,73.671c-3.545,0.785-10.172,0.929-21.148-3.274c-18.28-7.001-33.837-17.502-43.172-36.948
		c-9.334-19.447-29.17-28.003-58.34-50.562C427.488,319.062,419.709,284.447,419.709,284.447L419.709,284.447z"/>
	
		<path style="fill-rule:evenodd;clip-rule:evenodd;fill:#FFFFFF;stroke:#000000;stroke-width:2.4999;stroke-miterlimit:22.9256;" d="
		M1499.048,278.451c0.623,2.776,5.912,30.927-28.057,60.835c-35.781,31.504-59.118,56.006-80.12,74.286
		c-17.578,15.299-34.61,25.689-52.238,17.728c0.601,0.099,18.071,2.602,43.293-35.23
		C1407.87,357.154,1448.905,288.685,1499.048,278.451L1499.048,278.451z"/>
	<path style="fill:none;stroke:#000000;stroke-width:1.5001;stroke-miterlimit:22.9256;stroke-dasharray:3.0002,1.5001;" d="
		M1491.794,268.561c-51.067,10.653-93.354,79.5-119.803,119.174c-26.003,39.006-43.875,35.686-43.875,35.686"/>
	
		<path style="fill-rule:evenodd;clip-rule:evenodd;fill:#FFFFFF;stroke:#000000;stroke-width:2.0003;stroke-miterlimit:22.9256;" d="
		M1121.095-20.253l-31.645-12.358c-13.362,76.09-64.85,133.9-129.126,133.9s-116.103-57.76-129.436-133.9l-31.175,12.562
		c6.909,87.098,76.695,155.146,160.612,155.146S1114.236,66.902,1121.095-20.253L1121.095-20.253z"/>
	<path style="fill:none;stroke:#000000;stroke-width:1.4998;stroke-miterlimit:22.9256;stroke-dasharray:2.9996,1.4998;" d="
		M429.133,272.712c0,0,16.161,5.519,38.235,22.468c22.074,16.949,36.264,17.738,69.375,52.82
		c28.971,30.696,49.795,66.825,54.548,75.377"/>
	<path style="fill:none;stroke:#000000;stroke-width:1.5135;stroke-miterlimit:22.9256;stroke-dasharray:3.0269,1.5135;" d="
		M432.107,267.284c0,0,16.309,5.569,38.584,22.673c22.275,17.104,36.595,17.9,70.008,53.301
		c29.236,30.976,50.249,67.434,55.045,76.065"/>
	<path style="fill:none;stroke:#000000;stroke-width:1.5001;stroke-miterlimit:22.9256;stroke-dasharray:3.0001,1.5001;" d="
		M433.473,290.966c5.387,11.911,14.938,27.831,30.872,40.153c29.17,22.558,49.005,31.115,58.34,50.561
		c10.339,21.539,28.003,32.071,49.832,39.151 M445.348,298.482c5.628,9.303,13.505,19.33,24.325,27.697
		c29.17,22.558,49.005,31.115,58.34,50.561c8.553,17.818,22.119,28.104,38.909,35.134"/>
	<path style="fill:none;stroke:#000000;stroke-width:1.5001;stroke-miterlimit:22.9256;stroke-dasharray:3.0002,1.5001;" d="
		M1487.728,264.18c-51.066,10.653-93.354,79.5-119.803,119.174c-26.003,39.006-43.875,35.687-43.875,35.687"/>
	<path style="fill:none;stroke:#000000;stroke-width:1.5001;stroke-miterlimit:22.9256;stroke-dasharray:3.0002,1.5001;" d="
		M1491.528,279.952c-0.798,11.396-6.047,30.478-28.599,50.334c-35.781,31.503-59.118,56.006-80.12,74.286
		c-6.736,5.863-13.393,11.005-20.033,14.669 M1485.958,282.591c-2.23,11.461-9.031,27.4-27.74,43.872
		c-35.781,31.503-59.118,56.006-80.12,74.286"/>
</g>
</svg>
